<svg width="64" height="94" viewBox="0 0 64 94" fill="none" xmlns="http://www.w3.org/2000/svg">
<path d="M17 0C7.63504 0 0 7.63504 0 17C0 23.6006 3.89985 29.1857 9.41797 32C3.89985 34.8143 0 40.3994 0 47C0 53.6006 3.89985 59.1857 9.41797 62C3.89985 64.8143 0 70.3994 0 77C0 86.365 7.63504 94 17 94C26.365 94 34 86.365 34 77V62V55.3125C36.6827 60.4034 41.8641 64 48 64C56.8129 64 64 56.8129 64 48C64 40.7565 59.0523 34.8574 52.4297 32.8984C59.1071 30.6034 64 24.4404 64 17C64 7.63504 56.365 0 47 0H32H17ZM17 4H30V30H17C9.79696 30 4 24.203 4 17C4 9.79696 9.79696 4 17 4ZM34 4H47C54.203 4 60 9.79696 60 17C60 24.203 54.203 30 47 30H34V4ZM17 34H30V60H17C9.79696 60 4 54.203 4 47C4 39.797 9.79696 34 17 34ZM34 34H40.6875C37.8177 35.5123 35.5123 37.8177 34 40.6875V34ZM48 36C54.6511 36 60 41.3489 60 48C60 54.6511 54.6511 60 48 60C41.3489 60 36 54.6511 36 48C36 41.3489 41.3489 36 48 36ZM17 64H30V77C30 84.203 24.203 90 17 90C9.79696 90 4 84.203 4 77C4 69.797 9.79696 64 17 64Z" fill="#767676"/>
</svg>
