<svg width="22" height="22" viewBox="0 0 22 22" fill="none" xmlns="http://www.w3.org/2000/svg">
<path d="M6.68141 0.439941C3.241 0.439941 0.441406 3.23953 0.441406 6.67994V15.3199C0.441406 18.7603 3.241 21.5599 6.68141 21.5599H15.3214C18.7618 21.5599 21.5614 18.7603 21.5614 15.3199V6.67994C21.5614 3.23953 18.7618 0.439941 15.3214 0.439941H6.68141ZM6.68141 1.39994H15.3214C18.2429 1.39994 20.6014 3.75843 20.6014 6.67994V15.3199C20.6014 18.2415 18.2429 20.5999 15.3214 20.5999H6.68141C3.75989 20.5999 1.40141 18.2415 1.40141 15.3199V6.67994C1.40141 3.75843 3.75989 1.39994 6.68141 1.39994ZM16.7614 4.27994C16.5068 4.27994 16.2626 4.38108 16.0826 4.56112C15.9025 4.74115 15.8014 4.98533 15.8014 5.23994C15.8014 5.49455 15.9025 5.73873 16.0826 5.91876C16.2626 6.0988 16.5068 6.19994 16.7614 6.19994C17.016 6.19994 17.2602 6.0988 17.4402 5.91876C17.6203 5.73873 17.7214 5.49455 17.7214 5.23994C17.7214 4.98533 17.6203 4.74115 17.4402 4.56112C17.2602 4.38108 17.016 4.27994 16.7614 4.27994ZM11.0014 5.71994C8.09103 5.71994 5.72141 8.08956 5.72141 10.9999C5.72141 13.9103 8.09103 16.2799 11.0014 16.2799C13.9118 16.2799 16.2814 13.9103 16.2814 10.9999C16.2814 8.08956 13.9118 5.71994 11.0014 5.71994ZM11.0014 6.67994C13.393 6.67994 15.3214 8.60839 15.3214 10.9999C15.3214 13.3915 13.393 15.3199 11.0014 15.3199C8.60985 15.3199 6.68141 13.3915 6.68141 10.9999C6.68141 8.60839 8.60985 6.67994 11.0014 6.67994Z" fill="white"/>
</svg>
