<svg width="22" height="22" viewBox="0 0 22 22" fill="none" xmlns="http://www.w3.org/2000/svg">
<path d="M3.32187 0.919922C2.00167 0.919922 0.921875 1.99972 0.921875 3.31992V18.6799C0.921875 20.0001 2.00167 21.0799 3.32187 21.0799H18.6819C20.0021 21.0799 21.0819 20.0001 21.0819 18.6799V3.31992C21.0819 1.99972 20.0021 0.919922 18.6819 0.919922H3.32187ZM3.32187 1.87992H18.6819C19.4842 1.87992 20.1219 2.51757 20.1219 3.31992V18.6799C20.1219 19.4823 19.4842 20.1199 18.6819 20.1199H3.32187C2.51952 20.1199 1.88187 19.4823 1.88187 18.6799V3.31992C1.88187 2.51757 2.51952 1.87992 3.32187 1.87992ZM11.5025 3.79992C11.3754 3.79993 11.2534 3.85038 11.1634 3.94019C11.0734 4.03 11.0228 4.15185 11.0225 4.27898C11.0225 4.27898 11.0172 6.61909 11.0122 8.96461C11.0096 10.1374 11.0066 11.3113 11.0047 12.1952C11.0028 13.0791 11.0019 13.6384 11.0019 13.6849C11.0019 14.5562 10.2106 15.2684 9.30875 15.2684C8.41413 15.2684 7.7 14.5533 7.7 13.6587C7.7 12.7641 8.41413 12.0499 9.30875 12.0499C9.33906 12.0499 9.40014 12.0599 9.50469 12.0724C9.57211 12.0805 9.64049 12.0742 9.7053 12.0539C9.7701 12.0336 9.82987 11.9998 9.88064 11.9547C9.93141 11.9096 9.97203 11.8542 9.99983 11.7923C10.0276 11.7303 10.042 11.6631 10.0419 11.5952V9.57867C10.0419 9.45656 9.99532 9.33905 9.91172 9.25005C9.82812 9.16105 9.71374 9.10725 9.59188 9.09961C9.51708 9.0949 9.42295 9.08555 9.30875 9.08555C6.78898 9.08555 4.73563 11.1389 4.73562 13.6587C4.73562 16.1784 6.78898 18.2318 9.30875 18.2318C11.8285 18.2318 13.8819 16.1784 13.8819 13.6587V9.31523C14.5801 9.87367 15.4503 10.2274 16.4113 10.2274C16.5423 10.2274 16.667 10.2197 16.7863 10.2087C16.9054 10.1977 17.0162 10.1425 17.0969 10.0541C17.1775 9.96564 17.2222 9.85025 17.2222 9.73055V7.48898C17.2223 7.36763 17.1764 7.25076 17.0937 7.16188C17.0111 7.073 16.8979 7.0187 16.7769 7.00992C15.2674 6.90163 14.0642 5.72579 13.9072 4.23023C13.8949 4.11222 13.8393 4.00293 13.7512 3.92347C13.6631 3.844 13.5487 3.79999 13.43 3.79992H11.5025ZM11.9816 4.75992H13.0766C13.4254 6.3433 14.6627 7.55084 16.2622 7.85367V9.22898C15.2355 9.17685 14.3338 8.6647 13.8031 7.85742C13.7464 7.77103 13.6632 7.70526 13.5661 7.66991C13.469 7.63456 13.363 7.63151 13.264 7.66121C13.165 7.69092 13.0782 7.75179 13.0166 7.83477C12.9549 7.91776 12.9217 8.01842 12.9219 8.1218V13.6587C12.9219 15.6595 11.3097 17.2718 9.30875 17.2718C7.30788 17.2718 5.69562 15.6595 5.69562 13.6587C5.69562 11.7384 7.19359 10.2142 9.08187 10.0915V11.1359C7.77935 11.2571 6.74 12.3258 6.74 13.6587C6.74 15.0719 7.89553 16.2284 9.30875 16.2284C10.7148 16.2284 11.9619 15.1214 11.9619 13.6849C11.9619 13.7084 11.9628 13.081 11.9647 12.1971C11.9666 11.3132 11.9697 10.1392 11.9722 8.96648C11.9767 6.86077 11.9807 5.16754 11.9816 4.75992Z" fill="white"/>
</svg>
