<svg width="22" height="22" viewBox="0 0 22 22" fill="none" xmlns="http://www.w3.org/2000/svg">
<path d="M3.32187 0.919922C2.00211 0.919922 0.921875 2.00015 0.921875 3.31992V18.6799C0.921875 19.9997 2.00211 21.0799 3.32187 21.0799H11.4012C11.4531 21.0885 11.506 21.0885 11.5578 21.0799H14.2812C14.3331 21.0885 14.386 21.0885 14.4378 21.0799H18.6819C20.0016 21.0799 21.0819 19.9997 21.0819 18.6799V3.31992C21.0819 2.00015 20.0016 0.919922 18.6819 0.919922H3.32187ZM3.32187 1.87992H18.6819C19.4827 1.87992 20.1219 2.51905 20.1219 3.31992V18.6799C20.1219 19.4808 19.4827 20.1199 18.6819 20.1199H14.8419V13.3999H16.6756L17.3478 10.0399H14.8419V9.07992C14.8419 8.81233 14.8673 8.79141 14.9572 8.73305C15.047 8.67469 15.3247 8.59992 15.8019 8.59992H17.2419V5.89711L16.9681 5.7668C16.9681 5.7668 15.8655 5.23992 14.3619 5.23992C13.2819 5.23992 12.3946 5.67022 11.8269 6.37992C11.2591 7.08962 11.0019 8.03992 11.0019 9.07992V10.0399H9.56187V13.3999H11.0019V20.1199H3.32187C2.521 20.1199 1.88187 19.4808 1.88187 18.6799V3.31992C1.88187 2.51905 2.521 1.87992 3.32187 1.87992ZM14.3619 6.19992C15.3598 6.19992 15.9878 6.41998 16.2819 6.53648V7.63992H15.8019C15.2495 7.63992 14.8068 7.68562 14.4341 7.92773C14.0613 8.16985 13.8819 8.62944 13.8819 9.07992V10.9999H16.1759L15.8881 12.4399H13.8819V20.1199H11.9619V12.4399H10.5219V10.9999H11.9619V9.07992C11.9619 8.19992 12.1846 7.47022 12.5769 6.97992C12.9691 6.48962 13.5219 6.19992 14.3619 6.19992Z" fill="white"/>
</svg>