<svg width="89" height="72" viewBox="0 0 89 72" fill="none" xmlns="http://www.w3.org/2000/svg">
<path d="M18.7773 0C13.7553 0 10.041 4.51416 10.207 9.41016C10.367 14.1122 10.1581 20.2059 8.66406 25.1719C7.16806 30.1539 4.636 33.303 0.5 33.707V38.293C4.636 38.697 7.16806 41.8461 8.66406 46.8281C10.1581 51.7941 10.365 57.8878 10.207 62.5898C10.041 67.4858 13.7553 72 18.7773 72H70.2305C75.2525 72 78.9668 67.4858 78.8008 62.5898C78.6408 57.8878 78.8478 51.7941 80.3398 46.8281C81.8378 41.8461 84.364 38.697 88.5 38.293V33.707C84.364 33.303 81.8378 30.1539 80.3398 25.1719C78.8458 20.2059 78.6408 14.1122 78.8008 9.41016C78.9648 4.51416 75.2486 0 70.2266 0H18.7773ZM18.7773 4H70.2266C71.6926 4 72.7107 4.73166 73.3047 5.34766C74.3047 6.38166 74.8508 7.81344 74.8008 9.27344C74.6428 13.9334 74.8098 20.6723 76.5078 26.3203C78.0678 31.5123 80.5224 34.42 83.0664 36C80.5244 37.58 78.0698 40.4897 76.5078 45.6797C74.8098 51.3277 74.6428 58.0666 74.8008 62.7266C74.8508 64.1866 74.3047 65.6163 73.3047 66.6523C72.7107 67.2683 71.6926 68 70.2266 68H18.7773C17.3113 68 16.2971 67.2683 15.7031 66.6523C14.7031 65.6183 14.157 64.1866 14.207 62.7266C14.365 58.0666 14.1941 51.3277 12.4961 45.6797C10.9361 40.4897 8.4815 37.58 5.9375 36C8.4815 34.42 10.9361 31.5103 12.4961 26.3203C14.1941 20.6723 14.365 13.9334 14.207 9.27344C14.157 7.81344 14.7031 6.38166 15.7031 5.34766C16.2971 4.73166 17.3113 4 18.7773 4ZM30.2344 17.2656V54.7305H45.6523C49.6583 54.7305 52.9855 53.7543 55.2695 51.9023C57.5575 50.0483 58.7656 47.3516 58.7656 44.1016C58.7656 39.1936 55.2761 35.5043 50.0781 34.9023V34.8438C53.9001 34.1837 56.8828 30.6023 56.8828 26.6562C56.8828 23.8663 55.8112 21.5042 53.7812 19.8242C51.7592 18.1502 48.9183 17.2656 45.5703 17.2656H30.2344ZM36.3398 22.168H44.1445C48.4265 22.168 50.7852 24.045 50.7852 27.457C50.7832 31.119 47.9824 33.1367 42.8984 33.1367H36.3398V22.168ZM36.3398 37.7266H44.0898C49.6898 37.7266 52.5312 39.7522 52.5312 43.7422C52.5312 47.7282 49.7296 49.8359 44.4336 49.8359H36.3398V37.7266Z" fill="#767676"/>
</svg>
