<svg width="82" height="76" viewBox="0 0 82 76" fill="none" xmlns="http://www.w3.org/2000/svg">
<path d="M81.9169 13.8333V62.0417C81.9169 65.25 80.0835 68.1666 77.2085 69.5416C73.3752 71.375 68.1669 73.9166 65.0419 75.4166C65.1669 74.75 65.2502 74 65.2502 73.2916V2.70832C65.2502 1.79165 65.1252 1.04165 65.0002 0.541651C68.3752 2.12498 73.4585 4.58332 77.1669 6.33332C80.0835 7.70832 81.9169 10.625 81.9169 13.8333ZM6.54188 43.5833C9.70855 46.5 13.2919 49.75 17.0002 53.0833C14.7502 54.7916 12.7502 56.3333 11.1252 57.5417C8.66688 59.375 5.29188 59.3333 2.87521 57.375C1.25021 56.0416 0.41688 54.0833 0.41688 52.1666C0.41688 50.3333 1.12521 48.5416 2.58355 47.2083C3.75021 46.125 5.08355 44.9167 6.54188 43.5833ZM56.9169 2.70832V22.75C56.9169 22.75 51.2502 27.0416 43.7502 32.75C39.2502 29.375 34.5002 25.75 30.0419 22.3333C39.7919 13.4583 48.9585 5.08332 53.2919 1.08332C54.2502 0.166652 55.6252 0.416652 56.3752 1.24999C56.5835 1.49999 56.7502 1.79165 56.8335 2.16665C56.8752 2.33332 56.9169 2.49998 56.9169 2.70832ZM56.9169 73.2916V53.25C56.9169 53.25 23.1419 27.575 11.1294 18.4792C8.67105 16.6167 5.27938 16.6875 2.88355 18.6292C-0.30812 21.2167 -0.441454 26.0375 2.60438 28.7958C15.146 40.1625 44.4127 66.7041 53.296 74.9166C54.6752 76.1958 56.9169 75.2083 56.9169 73.2916Z" fill="#767676"/>
</svg>
