<svg width="81" height="79" viewBox="0 0 81 79" fill="none" xmlns="http://www.w3.org/2000/svg">
<path d="M40.75 0C18.66 0 0.75 17.91 0.75 40C0.75 58.7433 13.6567 74.4267 31.0567 78.7667C30.87 78.2267 30.75 77.6 30.75 76.8233V69.9867C29.1267 69.9867 26.4067 69.9867 25.7233 69.9867C22.9867 69.9867 20.5533 68.81 19.3733 66.6233C18.0633 64.1933 17.8367 60.4767 14.59 58.2033C13.6267 57.4467 14.36 56.5833 15.47 56.7C17.52 57.28 19.22 58.6867 20.82 60.7733C22.4133 62.8633 23.1633 63.3367 26.14 63.3367C27.5833 63.3367 29.7433 63.2533 31.7767 62.9333C32.87 60.1567 34.76 57.6 37.07 56.3933C23.75 55.0233 17.3933 48.3967 17.3933 39.4C17.3933 35.5267 19.0433 31.78 21.8467 28.6233C20.9267 25.49 19.77 19.1 22.2 16.6667C28.1933 16.6667 31.8167 20.5533 32.6867 21.6033C35.6733 20.58 38.9533 20 42.4 20C45.8533 20 49.1467 20.58 52.14 21.61C53 20.5667 56.6267 16.6667 62.6333 16.6667C65.0733 19.1033 63.9033 25.52 62.9733 28.6467C65.76 31.7967 67.4 35.5333 67.4 39.4C67.4 48.39 61.0533 55.0133 47.7533 56.39C51.4133 58.3 54.0833 63.6667 54.0833 67.71V76.8233C54.0833 77.17 54.0067 77.42 53.9667 77.7167C69.5533 72.2533 80.75 57.4533 80.75 40C80.75 17.91 62.84 0 40.75 0Z" fill="#767676"/>
</svg>
